<svg width="220" height="163" viewBox="0 0 220 163" fill="none" xmlns="http://www.w3.org/2000/svg">
<path d="M44.8642 137.127C44.8642 142.474 43.8164 147.04 41.7209 150.825C39.6491 154.61 36.7676 157.508 33.0767 159.519C29.4095 161.506 25.1706 162.5 20.3604 162.5H0V112.5H18.2171C26.6946 112.5 33.2552 114.629 37.8989 118.888C42.5424 123.122 44.8642 129.202 44.8642 137.127ZM34.2554 137.127C34.2554 131.757 32.8504 127.664 30.0404 124.849C27.2305 122.01 23.2179 120.591 18.0028 120.591H10.5372V154.409H19.4673C22.4917 154.409 25.0992 153.711 27.29 152.316C29.5047 150.896 31.2192 148.897 32.4337 146.318C33.6481 143.74 34.2554 140.676 34.2554 137.127ZM63.4029 143.515V162.5H52.8655V112.5H78.012C84.014 112.5 88.6444 113.789 91.908 116.368C95.1701 118.923 96.8011 122.602 96.8011 127.404C96.8011 130.905 95.8002 133.934 93.8001 136.489C91.8 139.02 89.0982 140.688 85.6916 141.492L99.3016 162.5H87.4423L75.7625 143.515H63.4029ZM86.192 127.83C86.192 125.441 85.4189 123.643 83.871 122.436C82.3231 121.23 80.0005 120.626 76.9047 120.626H63.4029V135.389H77.1907C80.1435 135.389 82.3813 134.726 83.9059 133.401C85.4306 132.076 86.192 130.219 86.192 127.83ZM116.269 112.5V162.5H105.731V112.5H116.269ZM170.957 137.127C170.957 142.474 169.907 147.04 167.813 150.825C165.741 154.61 162.86 157.508 159.169 159.519C155.501 161.506 151.263 162.5 146.451 162.5H126.091V112.5H144.308C152.786 112.5 159.347 114.629 163.99 118.888C168.634 123.122 170.957 129.202 170.957 137.127ZM160.347 137.127C160.347 131.757 158.943 127.664 156.133 124.849C153.321 122.01 149.309 120.591 144.094 120.591H136.629V154.409H145.559C148.583 154.409 151.192 153.711 153.381 152.316C155.596 150.896 157.312 148.897 158.525 146.318C159.739 143.74 160.347 140.676 160.347 137.127ZM220 154.409V162.5H178.957V112.5H218.535V120.591H189.495V133.153H216.356V141.244H189.495V154.409H220Z" fill="white"/>
<mask id="mask0_382_12101" style="mask-type:alpha" maskUnits="userSpaceOnUse" x="0" y="112" width="220" height="51">
<path d="M44.8642 137.127C44.8642 142.474 43.8164 147.04 41.7209 150.825C39.6491 154.61 36.7676 157.508 33.0767 159.519C29.4095 161.506 25.1706 162.5 20.3604 162.5H0V112.5H18.2171C26.6946 112.5 33.2552 114.629 37.8989 118.888C42.5424 123.122 44.8642 129.202 44.8642 137.127ZM34.2554 137.127C34.2554 131.757 32.8504 127.664 30.0404 124.849C27.2305 122.01 23.2179 120.591 18.0028 120.591H10.5372V154.409H19.4673C22.4917 154.409 25.0992 153.711 27.29 152.316C29.5047 150.896 31.2192 148.897 32.4337 146.318C33.6481 143.74 34.2554 140.676 34.2554 137.127ZM63.4029 143.515V162.5H52.8655V112.5H78.012C84.014 112.5 88.6444 113.789 91.908 116.368C95.1701 118.923 96.8011 122.602 96.8011 127.404C96.8011 130.905 95.8002 133.934 93.8001 136.489C91.8 139.02 89.0982 140.688 85.6916 141.492L99.3016 162.5H87.4423L75.7625 143.515H63.4029ZM86.192 127.83C86.192 125.441 85.4189 123.643 83.871 122.436C82.3231 121.23 80.0005 120.626 76.9047 120.626H63.4029V135.389H77.1907C80.1435 135.389 82.3813 134.726 83.9059 133.401C85.4306 132.076 86.192 130.219 86.192 127.83ZM116.269 112.5V162.5H105.731V112.5H116.269ZM170.957 137.127C170.957 142.474 169.907 147.04 167.813 150.825C165.741 154.61 162.86 157.508 159.169 159.519C155.501 161.506 151.263 162.5 146.451 162.5H126.091V112.5H144.308C152.786 112.5 159.347 114.629 163.99 118.888C168.634 123.122 170.957 129.202 170.957 137.127ZM160.347 137.127C160.347 131.757 158.943 127.664 156.133 124.849C153.321 122.01 149.309 120.591 144.094 120.591H136.629V154.409H145.559C148.583 154.409 151.192 153.711 153.381 152.316C155.596 150.896 157.312 148.897 158.525 146.318C159.739 143.74 160.347 140.676 160.347 137.127ZM220 154.409V162.5H178.957V112.5H218.535V120.591H189.495V133.153H216.356V141.244H189.495V154.409H220Z" fill="black"/>
</mask>
<g mask="url(#mask0_382_12101)">
<path d="M179.655 111.297H221.22V162.5H124.789L179.655 111.297Z" fill="#FF8F1F"/>
</g>
<path fill-rule="evenodd" clip-rule="evenodd" d="M135.391 22.3686C131.729 19.5686 127.598 17.3668 123.141 15.9147C119.147 14.6115 114.887 13.9062 110.466 13.9062C106.045 13.9062 101.787 14.6085 97.7898 15.9147C93.3306 17.3668 89.2019 19.5656 85.5405 22.3686C75.4566 30.0871 68.9287 42.37 68.9287 56.2031C68.9287 64.9541 71.541 73.0861 76.0088 79.8286V79.8316C76.1578 80.0518 76.3069 80.2751 76.4617 80.4922C77.0169 81.3016 77.6013 82.09 78.2179 82.8577C78.3552 83.0332 78.4984 83.2059 78.6416 83.3815C78.9046 83.7057 79.1792 84.0241 79.4568 84.3396C79.6263 84.5329 79.7958 84.7233 79.9711 84.9137C80.0442 84.997 80.1201 85.0805 80.1961 85.1608C80.3422 85.3215 80.4913 85.4792 80.6461 85.6368C80.725 85.7261 80.8097 85.8094 80.8916 85.8957C81.1838 86.2023 81.4877 86.4998 81.7916 86.7943C81.9172 86.9192 82.0458 87.0444 82.1773 87.1693C83.0948 88.0382 84.0474 88.8682 85.0409 89.6478C85.2016 89.7757 85.3623 89.9007 85.52 90.0228C85.8123 90.2459 86.1073 90.4691 86.4083 90.6833C86.835 90.9958 87.2704 91.2963 87.7116 91.5878C87.8489 91.683 87.9921 91.7753 88.1352 91.8675C88.2814 91.9657 88.4362 92.064 88.5883 92.1622C88.8951 92.3556 89.2076 92.546 89.5146 92.7304C90.1369 93.1024 90.7711 93.4565 91.4139 93.7956C91.6097 93.8999 91.8025 94.0011 92.0012 94.0992C92.1268 94.1647 92.2584 94.2301 92.3839 94.2926C92.6264 94.4116 92.872 94.5306 93.1175 94.6407C93.135 94.6526 93.1555 94.6645 93.1758 94.6734C93.4155 94.7865 93.6551 94.8937 93.8976 95.0008C93.9034 95.0038 93.9094 95.0068 93.9122 95.0098C94.0553 95.0693 94.1927 95.1317 94.3358 95.1912C94.5871 95.3013 94.8414 95.4054 95.0927 95.5096C95.1629 95.5393 95.2359 95.5691 95.306 95.5958C95.607 95.7119 95.9021 95.8279 96.2031 95.9381C96.3405 95.9887 96.4689 96.0393 96.6033 96.0869C96.8751 96.185 97.1441 96.2773 97.4129 96.3665C97.5501 96.4111 97.6817 96.4558 97.819 96.5004C98.0878 96.5896 98.3624 96.6759 98.6312 96.7592C98.7628 96.7979 98.8885 96.8367 99.0199 96.8724C99.1982 96.926 99.3706 96.9736 99.5459 97.0212C99.8644 97.1104 100.186 97.1997 100.513 97.277C100.624 97.3038 100.732 97.3306 100.84 97.3603C101.132 97.4317 101.431 97.5002 101.726 97.5626C101.851 97.5924 101.974 97.6162 102.097 97.643C102.275 97.6816 102.447 97.7144 102.62 97.7501C102.842 97.7919 103.061 97.8335 103.283 97.8722C103.508 97.9109 103.73 97.9466 103.946 97.9853C104.525 98.0805 105.107 98.1608 105.685 98.2262C105.814 98.2441 105.936 98.259 106.062 98.2679C106.401 98.3036 106.74 98.3363 107.076 98.3631C107.225 98.378 107.38 98.3869 107.529 98.3958C107.792 98.4166 108.055 98.4315 108.321 98.4464C108.441 98.4553 108.563 98.4583 108.68 98.4613C108.972 98.4761 109.271 98.4851 109.566 98.488C109.682 98.491 109.802 98.494 109.919 98.494C110.097 98.4999 110.276 98.4999 110.454 98.4999C110.632 98.4999 110.81 98.4999 110.986 98.494C111.103 98.494 111.225 98.491 111.345 98.488C111.64 98.4821 111.935 98.4732 112.227 98.4613C112.347 98.4583 112.47 98.4523 112.59 98.4464C112.856 98.4315 113.116 98.4166 113.379 98.3958C113.531 98.3869 113.683 98.378 113.835 98.3631C114.171 98.3363 114.513 98.3036 114.849 98.2679C114.971 98.256 115.097 98.2411 115.223 98.2262C115.804 98.1608 116.383 98.0805 116.961 97.9853C117.183 97.9496 117.405 97.9139 117.625 97.8722C117.847 97.8335 118.069 97.7919 118.285 97.7501C118.457 97.7173 118.63 97.6846 118.811 97.643C118.931 97.6192 119.056 97.5924 119.179 97.5626C119.474 97.5002 119.775 97.4317 120.07 97.3603C120.178 97.3336 120.284 97.3068 120.395 97.277C120.719 97.1997 121.04 97.1134 121.359 97.0212C121.534 96.9736 121.715 96.926 121.885 96.8724C122.019 96.8367 122.145 96.7979 122.274 96.7592C122.545 96.6759 122.82 96.5926 123.095 96.5004C123.229 96.4558 123.363 96.4111 123.495 96.3665C123.77 96.2773 124.036 96.185 124.307 96.0869C124.442 96.0393 124.573 95.9887 124.711 95.9381C125.006 95.8279 125.307 95.7119 125.602 95.5958C125.716 95.5482 125.838 95.5006 125.952 95.453C126.18 95.3608 126.402 95.2656 126.633 95.1674C126.773 95.105 126.917 95.0425 127.054 94.983C127.112 94.9592 127.168 94.9324 127.218 94.9086C127.478 94.7924 127.729 94.6764 127.98 94.5574C127.992 94.5544 127.998 94.5485 128.012 94.5425C128.278 94.4146 128.544 94.2807 128.816 94.1498C128.828 94.1439 128.842 94.1379 128.851 94.1349C128.994 94.0606 129.135 93.9892 129.275 93.9148C129.509 93.7956 129.745 93.6707 129.973 93.5427C130.017 93.5219 130.058 93.5011 130.099 93.4773C130.335 93.3434 130.575 93.2125 130.809 93.0787C130.987 92.9745 131.168 92.8702 131.344 92.7661C131.653 92.5817 131.963 92.3942 132.267 92.2009C132.483 92.061 132.705 91.921 132.919 91.7782C133.143 91.6325 133.366 91.4837 133.582 91.335C133.748 91.2189 133.921 91.1059 134.081 90.9869C134.19 90.9155 134.289 90.8409 134.394 90.7666C134.561 90.6476 134.721 90.5286 134.882 90.4036C135.075 90.2638 135.259 90.121 135.449 89.9782C136.276 89.3444 137.077 88.6778 137.854 87.9815C138.038 87.8208 138.213 87.6602 138.389 87.4936C138.657 87.2437 138.92 86.9936 139.186 86.7348C139.446 86.4819 139.709 86.2201 139.964 85.9581C140.148 85.7677 140.329 85.5744 140.513 85.381C140.612 85.2769 140.706 85.1727 140.805 85.0684C140.94 84.9197 141.071 84.7709 141.208 84.6222C141.378 84.4348 141.542 84.2444 141.702 84.0538C141.881 83.8545 142.044 83.6552 142.217 83.4499C142.368 83.2654 142.523 83.0808 142.666 82.8934C142.833 82.6851 143.003 82.4739 143.166 82.2627C143.23 82.1794 143.292 82.0989 143.35 82.0156C143.526 81.7925 143.692 81.5664 143.856 81.3343C144.034 81.0962 144.201 80.8552 144.37 80.6142C144.548 80.3584 144.73 80.0934 144.905 79.8316V79.8286C149.375 73.0861 151.985 64.9541 151.985 56.2031C152 42.37 145.475 30.0841 135.391 22.3686ZM97.2725 87.2675C89.5291 83.8515 83.3139 77.5197 79.9623 69.6346C81.8412 68.3283 84.1058 67.5308 86.534 67.4475C86.6831 67.4415 86.8233 67.4386 86.9724 67.4386C87.6591 67.4386 88.3281 67.4951 88.9856 67.6053C91.6184 68.0427 93.9766 69.3161 95.7794 71.155C98.0352 73.4492 99.429 76.6211 99.429 80.1291C99.429 82.7744 98.6342 85.2322 97.2725 87.2675ZM123.653 87.2675C122.291 85.2352 121.496 82.7744 121.496 80.1291C121.496 76.6211 122.89 73.4492 125.143 71.155C126.937 69.328 129.266 68.0605 131.872 67.6143C132.55 67.4981 133.243 67.4386 133.953 67.4386C134.07 67.4386 134.193 67.4415 134.31 67.4445C136.773 67.5129 139.061 68.3134 140.963 69.6346C137.614 77.5197 131.399 83.8485 123.653 87.2675ZM137.868 52.4569C135.639 51.6654 133.374 50.9691 131.069 50.3711C130.157 50.1331 129.24 49.9128 128.322 49.7046L125.575 49.1453C123.293 48.7137 120.982 48.3835 118.644 48.1485C117.838 48.068 117.026 47.9996 116.21 47.943C116.05 47.9311 115.889 47.9192 115.728 47.9103C115.38 47.8895 115.036 47.8687 114.685 47.8508C113.288 47.7794 111.883 47.7437 110.466 47.7437C108.774 47.7437 107.096 47.7973 105.431 47.8984H105.428C102.009 48.1039 98.6489 48.5204 95.3528 49.1393L92.606 49.7105C91.6797 49.9128 90.7681 50.1331 89.8593 50.3711C87.5247 50.978 85.225 51.6863 82.975 52.4897C81.0347 53.18 79.1296 53.9448 77.2653 54.7748C77.6247 45.9257 81.324 37.9573 87.1155 32.1372C89.5291 29.7063 92.3139 27.6502 95.3615 26.0642C96.2556 25.597 97.1644 25.1745 98.1024 24.7937C99.0024 24.4217 99.9141 24.0944 100.852 23.8148C102.374 23.3445 103.941 22.9816 105.545 22.7436C107.152 22.4995 108.794 22.3745 110.469 22.3745C113.811 22.3745 117.04 22.8745 120.085 23.8088C121.014 24.0974 121.932 24.4246 122.829 24.7937H122.832C123.77 25.1745 124.681 25.5999 125.575 26.0672C128.626 27.6532 131.402 29.7063 133.819 32.1401H133.821C136.711 35.0532 139.087 38.4989 140.782 42.3254C142.474 46.1519 143.488 50.3533 143.669 54.7778C141.764 53.9297 139.835 53.1562 137.868 52.4569Z" fill="#FF8F1F"/>
<path d="M123.142 15.9147C127.598 17.3668 131.73 19.5686 135.392 22.3686C136.876 23.5047 138.284 24.7396 139.605 26.0642L139.605 39.9257C138.049 37.0504 136.095 34.4307 133.823 32.1401H133.82C131.403 29.7063 128.627 27.6532 125.577 26.0672C124.682 25.5999 123.771 25.1745 122.833 24.7937H122.83C121.933 24.4246 121.015 24.0974 120.086 23.8088C117.041 22.8745 113.812 22.3745 110.469 22.3745C108.795 22.3745 107.153 22.4995 105.546 22.7436C103.942 22.9816 102.375 23.3445 100.853 23.8148C99.915 24.0944 99.0035 24.4217 98.1034 24.7937C97.1654 25.1745 96.2567 25.597 95.3626 26.0642C92.3148 27.6502 89.5302 29.7063 87.1166 32.1372C84.8383 34.4267 82.8839 37.0485 81.3291 39.9257V26.0642C82.6499 24.7398 84.0572 23.5048 85.5416 22.3686C89.2029 19.5656 93.3317 17.3668 97.7907 15.9147C101.788 14.6085 106.045 13.9062 110.466 13.9062C114.888 13.9062 119.148 14.6115 123.142 15.9147Z" fill="white"/>
<path d="M136.426 24.7147L152 16.785L110.466 0.5L68.9321 16.7879V33.2723C68.3769 33.6025 68 34.2156 68 34.9147C68 35.617 68.3769 36.23 68.9321 36.5572V38.7114H70.7964V36.5572C71.3516 36.227 71.7285 35.617 71.7285 34.9147C71.7285 34.2126 71.3516 33.6025 70.7964 33.2723V17.7371L84.5096 24.7177V35.1476C89.0859 31.0047 94.3254 27.9637 96.3731 26.9612C101.491 24.7618 105.654 23.814 110.466 23.814C115.279 23.814 120.597 24.9907 124.562 26.9641C127.124 28.1926 133.085 31.6403 136.426 35.6022V24.7147Z" fill="#3D72FC"/>
<path fill-rule="evenodd" clip-rule="evenodd" d="M90.0158 36.8271C86.2525 40.7905 83.5791 45.8368 82.4971 51.4633C82.5233 51.4527 82.5496 51.4446 82.5759 51.4339C83.7839 45.9491 86.7148 41.1248 90.7564 37.5788L90.0158 36.8271Z" fill="#3D72FC"/>
<path fill-rule="evenodd" clip-rule="evenodd" d="M91.4921 36.9553C93.9976 34.9201 96.8889 33.3584 100.038 32.4064L99.1973 30.3418C96.0223 31.7484 93.1439 33.7221 90.6885 36.1397L91.4921 36.9553Z" fill="#3D72FC"/>
<path fill-rule="evenodd" clip-rule="evenodd" d="M100.961 32.1464C102.973 31.6222 105.082 31.344 107.253 31.344C108.223 31.344 109.178 31.4002 110.121 31.5073V27.9424C106.581 28.0012 103.193 28.7154 100.076 29.9722L100.961 32.1464Z" fill="#3D72FC"/>
<path fill-rule="evenodd" clip-rule="evenodd" d="M111.075 27.9399V31.6331C114.011 32.0876 116.782 33.053 119.298 34.4436L121.118 29.9696C118 28.7127 114.615 27.9987 111.075 27.9399Z" fill="#3D72FC"/>
<path fill-rule="evenodd" clip-rule="evenodd" d="M121.998 30.3384L120.134 34.9246C122.508 36.358 124.633 38.1766 126.426 40.2946L130.51 36.1361C128.052 33.7185 125.176 31.745 121.998 30.3384Z" fill="#3D72FC"/>
<path fill-rule="evenodd" clip-rule="evenodd" d="M131.181 36.8271L127.034 41.0499C128.899 43.43 130.244 46.0615 131.241 48.9174C131.26 48.9736 131.278 49.0326 131.296 49.0886C133.818 49.7653 136.284 50.5595 138.697 51.4661C137.644 45.9759 134.999 40.8467 131.181 36.8271Z" fill="#3D72FC"/>
<path fill-rule="evenodd" clip-rule="evenodd" d="M110 45.7397L116 35.7793L113.908 47.5392C113.467 46.9087 112.877 46.3958 112.167 46.0678C111.456 45.7421 110.713 45.6427 110 45.7397Z" fill="#3D72FC"/>
<path fill-rule="evenodd" clip-rule="evenodd" d="M113.502 45.9193C117.102 47.4369 118.811 51.6412 117.321 55.3071C115.83 58.973 111.702 60.7137 108.102 59.1961C104.502 57.6785 102.792 53.4742 104.283 49.8083C105.773 46.1426 109.902 44.4019 113.502 45.9193Z" fill="white"/>
<path fill-rule="evenodd" clip-rule="evenodd" d="M110.802 48.4575C113.023 48.4575 114.826 50.2934 114.826 52.5577C114.826 54.8192 113.023 56.6551 110.802 56.6551C108.578 56.6551 106.778 54.8192 106.775 52.5577C106.775 50.2934 108.578 48.4605 110.802 48.4575Z" fill="#3D72FC"/>
</svg>
