<svg width="189" height="56" viewBox="0 0 189 56" fill="none" xmlns="http://www.w3.org/2000/svg">
<path d="M83.8097 27.6387C83.8097 30.8757 83.1803 33.64 81.9217 35.9316C80.6774 38.2233 78.9467 39.9779 76.7298 41.1953C74.5272 42.3984 71.9813 43 69.0922 43H56.8633V12.7285H67.8049C72.8966 12.7285 76.8371 14.0176 79.6261 16.5957C82.4151 19.1595 83.8097 22.8405 83.8097 27.6387ZM77.4378 27.6387C77.4378 24.3874 76.5939 21.9095 74.9062 20.2051C73.2185 18.4863 70.8085 17.627 67.6762 17.627H63.1922V38.1016H68.5557C70.3723 38.1016 71.9384 37.679 73.2542 36.834C74.5844 35.9746 75.6142 34.7643 76.3437 33.2031C77.073 31.6419 77.4378 29.7871 77.4378 27.6387ZM94.9444 31.5059V43H88.6154V12.7285H103.719C107.324 12.7285 110.105 13.5091 112.065 15.0703C114.024 16.6172 115.004 18.8444 115.004 21.752C115.004 23.8717 114.403 25.7051 113.202 27.252C112 28.7845 110.378 29.7943 108.331 30.2812L116.506 43H109.383L102.368 31.5059H94.9444ZM108.632 22.0098C108.632 20.5632 108.168 19.4746 107.238 18.7441C106.308 18.0137 104.913 17.6484 103.054 17.6484H94.9444V26.5859H103.226C104.999 26.5859 106.343 26.1849 107.259 25.3828C108.175 24.5807 108.632 23.4564 108.632 22.0098ZM126.697 12.7285V43H120.368V12.7285H126.697ZM159.543 27.6387C159.543 30.8757 158.913 33.64 157.655 35.9316C156.411 38.2233 154.68 39.9779 152.463 41.1953C150.26 42.3984 147.715 43 144.825 43H132.596V12.7285H143.538C148.63 12.7285 152.57 14.0176 155.359 16.5957C158.148 19.1595 159.543 22.8405 159.543 27.6387ZM153.171 27.6387C153.171 24.3874 152.328 21.9095 150.64 20.2051C148.951 18.4863 146.542 17.627 143.409 17.627H138.925V38.1016H144.289C146.105 38.1016 147.672 37.679 148.987 36.834C150.317 35.9746 151.348 34.7643 152.077 33.2031C152.806 31.6419 153.171 29.7871 153.171 27.6387ZM189 38.1016V43H164.349V12.7285H188.12V17.627H170.678V25.2324H186.811V30.1309H170.678V38.1016H189Z" fill="#191825"/>
<mask id="mask0_251_62695" style="mask-type:alpha" maskUnits="userSpaceOnUse" x="56" y="12" width="133" height="31">
<path d="M83.8097 27.6387C83.8097 30.8757 83.1803 33.64 81.9217 35.9316C80.6774 38.2233 78.9467 39.9779 76.7298 41.1953C74.5272 42.3984 71.9813 43 69.0922 43H56.8633V12.7285H67.8049C72.8966 12.7285 76.8371 14.0176 79.6261 16.5957C82.4151 19.1595 83.8097 22.8405 83.8097 27.6387ZM77.4378 27.6387C77.4378 24.3874 76.5939 21.9095 74.9062 20.2051C73.2185 18.4863 70.8085 17.627 67.6762 17.627H63.1922V38.1016H68.5557C70.3723 38.1016 71.9384 37.679 73.2542 36.834C74.5844 35.9746 75.6142 34.7643 76.3437 33.2031C77.073 31.6419 77.4378 29.7871 77.4378 27.6387ZM94.9444 31.5059V43H88.6154V12.7285H103.719C107.324 12.7285 110.105 13.5091 112.065 15.0703C114.024 16.6172 115.004 18.8444 115.004 21.752C115.004 23.8717 114.403 25.7051 113.202 27.252C112 28.7845 110.378 29.7943 108.331 30.2812L116.506 43H109.383L102.368 31.5059H94.9444ZM108.632 22.0098C108.632 20.5632 108.168 19.4746 107.238 18.7441C106.308 18.0137 104.913 17.6484 103.054 17.6484H94.9444V26.5859H103.226C104.999 26.5859 106.343 26.1849 107.259 25.3828C108.175 24.5807 108.632 23.4564 108.632 22.0098ZM126.697 12.7285V43H120.368V12.7285H126.697ZM159.543 27.6387C159.543 30.8757 158.913 33.64 157.655 35.9316C156.411 38.2233 154.68 39.9779 152.463 41.1953C150.26 42.3984 147.715 43 144.825 43H132.596V12.7285H143.538C148.63 12.7285 152.57 14.0176 155.359 16.5957C158.148 19.1595 159.543 22.8405 159.543 27.6387ZM153.171 27.6387C153.171 24.3874 152.328 21.9095 150.64 20.2051C148.951 18.4863 146.542 17.627 143.409 17.627H138.925V38.1016H144.289C146.105 38.1016 147.672 37.679 148.987 36.834C150.317 35.9746 151.348 34.7643 152.077 33.2031C152.806 31.6419 153.171 29.7871 153.171 27.6387ZM189 38.1016V43H164.349V12.7285H188.12V17.627H170.678V25.2324H186.811V30.1309H170.678V38.1016H189Z" fill="black"/>
</mask>
<g mask="url(#mask0_251_62695)">
<path d="M164.768 12H189.733V43H131.814L164.768 12Z" fill="white"/>
</g>
<path fill-rule="evenodd" clip-rule="evenodd" d="M38.4552 12.4958C36.3659 10.8958 34.0082 9.63762 31.4654 8.80787C29.1861 8.06314 26.755 7.66016 24.2323 7.66016C21.7095 7.66016 19.2801 8.06144 16.9991 8.80787C14.4546 9.63762 12.0986 10.8941 10.0094 12.4958C4.25524 16.9064 0.530273 23.9253 0.530273 31.83C0.530273 36.8306 2.02092 41.4775 4.57037 45.3304V45.3321C4.6554 45.4579 4.74044 45.5855 4.82881 45.7096C5.14561 46.1721 5.47909 46.6226 5.83092 47.0613C5.90929 47.1616 5.99099 47.2603 6.07269 47.3606C6.22276 47.5459 6.37949 47.7278 6.53789 47.9081C6.6346 48.0186 6.73131 48.1274 6.83135 48.2362C6.87304 48.2838 6.91639 48.3315 6.95974 48.3774C7.04311 48.4692 7.12815 48.5593 7.21652 48.6494C7.26154 48.7004 7.3099 48.748 7.35658 48.7973C7.52332 48.9725 7.69673 49.1425 7.87014 49.3108C7.94184 49.3822 8.0152 49.4537 8.09023 49.5251C8.61379 50.0216 9.15737 50.4959 9.72428 50.9414C9.81599 51.0145 9.90769 51.0859 9.9977 51.1557C10.1645 51.2832 10.3328 51.4107 10.5046 51.5331C10.748 51.7117 10.9965 51.8834 11.2482 52.05C11.3266 52.1044 11.4083 52.1571 11.49 52.2098C11.5734 52.2659 11.6618 52.3221 11.7485 52.3782C11.9236 52.4887 12.1019 52.5975 12.2771 52.7029C12.6322 52.9155 12.9941 53.1178 13.3609 53.3116C13.4726 53.3712 13.5827 53.429 13.696 53.4851C13.7677 53.5225 13.8428 53.5599 13.9144 53.5956C14.0528 53.6636 14.1929 53.7316 14.333 53.7945C14.343 53.8013 14.3547 53.8081 14.3663 53.8132C14.5031 53.8778 14.6398 53.9391 14.7782 54.0003C14.7815 54.002 14.7849 54.0037 14.7865 54.0054C14.8681 54.0394 14.9465 54.0751 15.0282 54.1091C15.1716 54.172 15.3167 54.2315 15.4601 54.291C15.5002 54.308 15.5418 54.325 15.5818 54.3403C15.7536 54.4066 15.922 54.4729 16.0937 54.5359C16.1721 54.5648 16.2454 54.5937 16.3221 54.6209C16.4772 54.677 16.6307 54.7297 16.7841 54.7807C16.8623 54.8062 16.9374 54.8317 17.0158 54.8572C17.1692 54.9082 17.3259 54.9575 17.4793 55.0051C17.5544 55.0272 17.6261 55.0494 17.7011 55.0698C17.8028 55.1004 17.9012 55.1276 18.0012 55.1548C18.183 55.2058 18.3663 55.2568 18.5532 55.301C18.6165 55.3163 18.6782 55.3316 18.7399 55.3486C18.9066 55.3894 19.0767 55.4285 19.2451 55.4642C19.3168 55.4812 19.3868 55.4948 19.4569 55.5101C19.5585 55.5322 19.6569 55.5509 19.7553 55.5713C19.882 55.5952 20.0071 55.619 20.1338 55.6411C20.2622 55.6632 20.3889 55.6836 20.5123 55.7057C20.8424 55.7601 21.1743 55.806 21.5044 55.8434C21.5778 55.8536 21.6478 55.8621 21.7195 55.8672C21.9129 55.8876 22.1064 55.9063 22.2981 55.9216C22.3832 55.9301 22.4715 55.9352 22.5565 55.9403C22.7066 55.9522 22.8567 55.9607 23.0084 55.9692C23.0768 55.9743 23.1468 55.976 23.2135 55.9777C23.3803 55.9862 23.5503 55.9913 23.7187 55.993C23.7854 55.9947 23.8538 55.9964 23.9205 55.9964C24.0222 55.9998 24.1239 55.9998 24.2256 55.9998C24.3273 55.9998 24.429 55.9998 24.5291 55.9964C24.5958 55.9964 24.6658 55.9947 24.7342 55.993C24.9025 55.9896 25.071 55.9845 25.2377 55.9777C25.3061 55.976 25.3761 55.9726 25.4445 55.9692C25.5961 55.9607 25.7445 55.9522 25.8946 55.9403C25.9814 55.9352 26.0681 55.9301 26.1548 55.9216C26.3465 55.9063 26.5416 55.8876 26.7333 55.8672C26.8034 55.8604 26.875 55.8519 26.9467 55.8434C27.2786 55.806 27.6087 55.7601 27.9389 55.7057C28.0656 55.6853 28.1923 55.6649 28.3174 55.6411C28.4441 55.619 28.5709 55.5952 28.6942 55.5713C28.7926 55.5526 28.8909 55.5339 28.9944 55.5101C29.0627 55.4965 29.1344 55.4812 29.2045 55.4642C29.3728 55.4285 29.5446 55.3894 29.713 55.3486C29.7747 55.3333 29.8347 55.318 29.8981 55.301C30.0831 55.2568 30.2666 55.2075 30.4483 55.1548C30.5484 55.1276 30.6517 55.1004 30.7484 55.0698C30.8251 55.0494 30.8969 55.0272 30.9702 55.0051C31.1253 54.9575 31.282 54.9099 31.4387 54.8572C31.5154 54.8317 31.5921 54.8062 31.6672 54.7807C31.8239 54.7297 31.9757 54.677 32.1308 54.6209C32.2074 54.5937 32.2824 54.5648 32.3608 54.5359C32.5292 54.4729 32.701 54.4066 32.8693 54.3403C32.9344 54.3131 33.0044 54.2859 33.0694 54.2587C33.1995 54.206 33.3263 54.1516 33.458 54.0955C33.538 54.0598 33.6197 54.0241 33.698 53.9901C33.7314 53.9765 33.7631 53.9612 33.7914 53.9476C33.9398 53.8812 34.0832 53.8149 34.2266 53.7469C34.2333 53.7452 34.2366 53.7418 34.245 53.7384C34.3967 53.6653 34.5485 53.5888 34.7035 53.514C34.7101 53.5106 34.7185 53.5072 34.7235 53.5055C34.8052 53.463 34.8853 53.4222 34.9653 53.3797C35.0987 53.3116 35.2337 53.2402 35.3638 53.1671C35.3888 53.1552 35.4121 53.1433 35.4355 53.1297C35.5705 53.0532 35.7072 52.9784 35.8406 52.9019C35.9424 52.8424 36.0457 52.7828 36.1458 52.7233C36.3226 52.6179 36.4993 52.5108 36.6727 52.4003C36.7961 52.3204 36.9228 52.2404 37.0445 52.1588C37.1729 52.0755 37.2996 51.9905 37.423 51.9055C37.5181 51.8392 37.6164 51.7746 37.7081 51.7066C37.7698 51.6658 37.8265 51.6232 37.8866 51.5807C37.9816 51.5127 38.0733 51.4447 38.165 51.3733C38.275 51.2934 38.3801 51.2118 38.4885 51.1302C38.9603 50.768 39.4172 50.3871 39.8608 49.9892C39.9658 49.8974 40.0658 49.8056 40.1658 49.7104C40.3192 49.5676 40.4693 49.4247 40.6211 49.2768C40.7695 49.1323 40.9196 48.9827 41.0646 48.833C41.1696 48.7242 41.273 48.6137 41.378 48.5032C41.4348 48.4437 41.4881 48.3842 41.5448 48.3246C41.6215 48.2396 41.6966 48.1546 41.7749 48.0696C41.8716 47.9625 41.965 47.8537 42.0567 47.7448C42.1584 47.6309 42.2518 47.517 42.3502 47.3997C42.4368 47.2943 42.5252 47.1888 42.6069 47.0817C42.702 46.9627 42.7987 46.842 42.8921 46.7213C42.9288 46.6737 42.9638 46.6277 42.9972 46.5801C43.0971 46.4526 43.1922 46.3234 43.2856 46.1908C43.3873 46.0547 43.4823 45.917 43.579 45.7793C43.6807 45.6331 43.7842 45.4817 43.8841 45.3321V45.3304C46.4352 41.4775 47.9242 36.8306 47.9242 31.83C47.9326 23.9253 44.2093 16.9047 38.4552 12.4958ZM16.704 49.5812C12.2854 47.6292 8.73886 44.011 6.82635 39.5052C7.89849 38.7587 9.19071 38.303 10.5763 38.2554C10.6614 38.252 10.7414 38.2503 10.8264 38.2503C11.2183 38.2503 11.6 38.2826 11.9752 38.3456C13.4776 38.5955 14.8232 39.3232 15.852 40.374C17.1392 41.685 17.9345 43.4975 17.9345 45.5021C17.9345 47.0137 17.481 48.4182 16.704 49.5812ZM31.7572 49.5812C30.9802 48.4199 30.5267 47.0137 30.5267 45.5021C30.5267 43.4975 31.322 41.685 32.6076 40.374C33.6313 39.33 34.9603 38.6057 36.4476 38.3507C36.8344 38.2843 37.2296 38.2503 37.6348 38.2503C37.7015 38.2503 37.7715 38.252 37.8382 38.2537C39.2438 38.2928 40.5494 38.7502 41.6349 39.5052C39.724 44.011 36.1775 47.6275 31.7572 49.5812ZM39.8691 29.6893C38.5969 29.237 37.3047 28.8391 35.989 28.4974C35.4689 28.3614 34.9453 28.2355 34.4217 28.1165L32.8543 27.7969C31.5522 27.5503 30.2332 27.3616 28.8993 27.2273C28.4391 27.1813 27.9756 27.1422 27.5104 27.1099C27.4187 27.1031 27.3269 27.0963 27.2352 27.0912C27.0368 27.0793 26.8401 27.0674 26.64 27.0572C25.843 27.0164 25.0409 26.996 24.2323 26.996C23.2668 26.996 22.3098 27.0266 21.3593 27.0844H21.3577C19.4069 27.2018 17.4894 27.4398 15.6085 27.7935L14.0411 28.1199C13.5126 28.2355 12.9924 28.3614 12.4738 28.4974C11.1416 28.8442 9.82933 29.2489 8.54544 29.708C7.43829 30.1025 6.35115 30.5395 5.28734 31.0138C5.49243 25.9571 7.60335 21.4037 10.9081 18.0779C12.2854 16.6888 13.8744 15.5139 15.6135 14.6076C16.1237 14.3406 16.6423 14.0992 17.1775 13.8816C17.6911 13.669 18.2113 13.482 18.7466 13.3222C19.6153 13.0535 20.509 12.8461 21.4244 12.7101C22.3414 12.5706 23.2785 12.4992 24.234 12.4992C26.1414 12.4992 27.9839 12.7849 29.7213 13.3188C30.2516 13.4837 30.7752 13.6707 31.287 13.8816H31.2886C31.8239 14.0992 32.3442 14.3423 32.8543 14.6093C34.5951 15.5156 36.1792 16.6888 37.5581 18.0796H37.5597C39.2088 19.7442 40.5644 21.7132 41.5314 23.8998C42.4969 26.0864 43.0754 28.4872 43.1788 31.0155C42.0917 30.5309 40.9913 30.0889 39.8691 29.6893Z" fill="white"/>
<path d="M31.4657 8.80787C34.0084 9.63762 36.3661 10.8958 38.4554 12.4958C39.3026 13.145 40.1059 13.8507 40.8596 14.6076L40.8594 22.5285C39.9718 20.8855 38.8566 19.3885 37.56 18.0796H37.5583C36.1794 16.6888 34.5954 15.5156 32.8547 14.6093C32.3444 14.3423 31.8242 14.0992 31.289 13.8816H31.2873C30.7754 13.6707 30.2518 13.4837 29.7216 13.3188C27.9842 12.7849 26.1417 12.4992 24.2342 12.4992C23.2788 12.4992 22.3418 12.5706 21.4246 12.7101C20.5092 12.8461 19.6155 13.0535 18.7468 13.3222C18.2116 13.482 17.6914 13.669 17.1778 13.8816C16.6426 14.0992 16.124 14.3406 15.6138 14.6076C13.8747 15.5139 12.2857 16.6888 10.9084 18.0779C9.60841 19.3862 8.49314 20.8844 7.60596 22.5285V14.6076C8.35963 13.8508 9.16267 13.1451 10.0097 12.4958C12.099 10.8941 14.455 9.63762 16.9994 8.80787C19.2804 8.06144 21.7097 7.66016 24.2325 7.66016C26.7553 7.66016 29.1863 8.06314 31.4657 8.80787Z" fill="#191825"/>
<path d="M39.0453 13.8371L47.9325 9.30577L24.2322 0L0.531898 9.30748V18.7272C0.215094 18.9159 0 19.2662 0 19.6657C0 20.067 0.215094 20.4173 0.531898 20.6043V21.8353H1.59569V20.6043C1.9125 20.4156 2.1276 20.067 2.1276 19.6657C2.1276 19.2645 1.9125 18.9159 1.59569 18.7272V9.84987L9.42077 13.8388V19.7988C12.0322 17.4314 15.022 15.6937 16.1904 15.1208C19.1109 13.864 21.4861 13.3224 24.2322 13.3224C26.9784 13.3224 30.0131 13.9948 32.2757 15.1225C33.7379 15.8245 37.1389 17.7946 39.0453 20.0586V13.8371Z" fill="#3D72FC"/>
<path fill-rule="evenodd" clip-rule="evenodd" d="M12.5629 20.7588C10.4154 23.0236 8.88987 25.9072 8.27246 29.1224C8.28744 29.1163 8.30243 29.1117 8.31742 29.1056C9.00676 25.9714 10.6792 23.2146 12.9855 21.1883L12.5629 20.7588Z" fill="#3D72FC"/>
<path fill-rule="evenodd" clip-rule="evenodd" d="M13.4048 20.8319C14.8345 19.6689 16.4844 18.7765 18.2812 18.2325L17.8017 17.0527C15.9899 17.8565 14.3474 18.9843 12.9463 20.3658L13.4048 20.8319Z" fill="#3D72FC"/>
<path fill-rule="evenodd" clip-rule="evenodd" d="M18.8087 18.0839C19.9566 17.7844 21.16 17.6254 22.3992 17.6254C22.9523 17.6254 23.4977 17.6575 24.0357 17.7187V15.6816C22.0157 15.7152 20.0825 16.1233 18.3037 16.8415L18.8087 18.0839Z" fill="#3D72FC"/>
<path fill-rule="evenodd" clip-rule="evenodd" d="M24.5796 15.6797V17.7901C26.2549 18.0498 27.836 18.6015 29.2716 19.3961L30.3101 16.8395C28.5313 16.1213 26.5996 15.7133 24.5796 15.6797Z" fill="#3D72FC"/>
<path fill-rule="evenodd" clip-rule="evenodd" d="M30.8125 17.0508L29.7485 19.6715C31.1032 20.4906 32.3156 21.5298 33.3392 22.7401L35.6694 20.3638C34.2668 18.9823 32.6258 17.8546 30.8125 17.0508Z" fill="#3D72FC"/>
<path fill-rule="evenodd" clip-rule="evenodd" d="M36.0528 20.7588L33.6865 23.1718C34.7505 24.5319 35.5178 26.0356 36.0872 27.6676C36.0977 27.6997 36.1082 27.7334 36.1187 27.7654C37.5574 28.1521 38.9645 28.6059 40.3418 29.124C39.7408 25.9867 38.2317 23.0557 36.0528 20.7588Z" fill="#3D72FC"/>
<path fill-rule="evenodd" clip-rule="evenodd" d="M23.9663 25.8519L27.39 20.1602L26.1963 26.8802C25.9449 26.5199 25.6082 26.2268 25.2028 26.0394C24.7973 25.8533 24.3729 25.7965 23.9663 25.8519Z" fill="#3D72FC"/>
<path fill-rule="evenodd" clip-rule="evenodd" d="M25.9643 25.9539C28.0186 26.8211 28.9941 29.2236 28.1437 31.3184C27.2933 33.4132 24.9373 34.4079 22.8831 33.5407C20.8288 32.6735 19.8533 30.271 20.7037 28.1762C21.5541 26.0815 23.9101 25.0868 25.9643 25.9539Z" fill="#191825"/>
<path fill-rule="evenodd" clip-rule="evenodd" d="M24.4241 27.4043C25.6913 27.4043 26.7201 28.4534 26.7201 29.7473C26.7201 31.0396 25.6913 32.0887 24.4241 32.0887C23.1552 32.0887 22.1282 31.0396 22.1265 29.7473C22.1265 28.4534 23.1552 27.406 24.4241 27.4043Z" fill="#3D72FC"/>
</svg>
