<svg width="189" height="56" viewBox="0 0 189 56" fill="none" xmlns="http://www.w3.org/2000/svg">
<path d="M83.8097 27.6387C83.8097 30.8757 83.1803 33.64 81.9217 35.9316C80.6774 38.2233 78.9467 39.9779 76.7298 41.1953C74.5272 42.3984 71.9813 43 69.0922 43H56.8633V12.7285H67.8049C72.8966 12.7285 76.8371 14.0176 79.6261 16.5957C82.4151 19.1595 83.8097 22.8405 83.8097 27.6387ZM77.4378 27.6387C77.4378 24.3874 76.5939 21.9095 74.9062 20.2051C73.2185 18.4863 70.8085 17.627 67.6762 17.627H63.1922V38.1016H68.5557C70.3723 38.1016 71.9384 37.679 73.2542 36.834C74.5844 35.9746 75.6142 34.7643 76.3437 33.2031C77.073 31.6419 77.4378 29.7871 77.4378 27.6387ZM94.9444 31.5059V43H88.6154V12.7285H103.719C107.324 12.7285 110.105 13.5091 112.065 15.0703C114.024 16.6172 115.004 18.8444 115.004 21.752C115.004 23.8717 114.403 25.7051 113.202 27.252C112 28.7845 110.378 29.7943 108.331 30.2812L116.506 43H109.383L102.368 31.5059H94.9444ZM108.632 22.0098C108.632 20.5632 108.168 19.4746 107.238 18.7441C106.308 18.0137 104.913 17.6484 103.054 17.6484H94.9444V26.5859H103.226C104.999 26.5859 106.343 26.1849 107.259 25.3828C108.175 24.5807 108.632 23.4564 108.632 22.0098ZM126.697 12.7285V43H120.368V12.7285H126.697ZM159.543 27.6387C159.543 30.8757 158.913 33.64 157.655 35.9316C156.411 38.2233 154.68 39.9779 152.463 41.1953C150.26 42.3984 147.715 43 144.825 43H132.596V12.7285H143.538C148.63 12.7285 152.57 14.0176 155.359 16.5957C158.148 19.1595 159.543 22.8405 159.543 27.6387ZM153.171 27.6387C153.171 24.3874 152.328 21.9095 150.64 20.2051C148.951 18.4863 146.542 17.627 143.409 17.627H138.925V38.1016H144.289C146.105 38.1016 147.672 37.679 148.987 36.834C150.317 35.9746 151.348 34.7643 152.077 33.2031C152.806 31.6419 153.171 29.7871 153.171 27.6387ZM189 38.1016V43H164.349V12.7285H188.12V17.627H170.678V25.2324H186.811V30.1309H170.678V38.1016H189Z" fill="#191825"/>
<mask id="mask0_8_20" style="mask-type:alpha" maskUnits="userSpaceOnUse" x="56" y="12" width="133" height="31">
<path d="M83.8097 27.6387C83.8097 30.8757 83.1803 33.64 81.9217 35.9316C80.6774 38.2233 78.9467 39.9779 76.7298 41.1953C74.5272 42.3984 71.9813 43 69.0922 43H56.8633V12.7285H67.8049C72.8966 12.7285 76.8371 14.0176 79.6261 16.5957C82.4151 19.1595 83.8097 22.8405 83.8097 27.6387ZM77.4378 27.6387C77.4378 24.3874 76.5939 21.9095 74.9062 20.2051C73.2185 18.4863 70.8085 17.627 67.6762 17.627H63.1922V38.1016H68.5557C70.3723 38.1016 71.9384 37.679 73.2542 36.834C74.5844 35.9746 75.6142 34.7643 76.3437 33.2031C77.073 31.6419 77.4378 29.7871 77.4378 27.6387ZM94.9444 31.5059V43H88.6154V12.7285H103.719C107.324 12.7285 110.105 13.5091 112.065 15.0703C114.024 16.6172 115.004 18.8444 115.004 21.752C115.004 23.8717 114.403 25.7051 113.202 27.252C112 28.7845 110.378 29.7943 108.331 30.2812L116.506 43H109.383L102.368 31.5059H94.9444ZM108.632 22.0098C108.632 20.5632 108.168 19.4746 107.238 18.7441C106.308 18.0137 104.913 17.6484 103.054 17.6484H94.9444V26.5859H103.226C104.999 26.5859 106.343 26.1849 107.259 25.3828C108.175 24.5807 108.632 23.4564 108.632 22.0098ZM126.697 12.7285V43H120.368V12.7285H126.697ZM159.543 27.6387C159.543 30.8757 158.913 33.64 157.655 35.9316C156.411 38.2233 154.68 39.9779 152.463 41.1953C150.26 42.3984 147.715 43 144.825 43H132.596V12.7285H143.538C148.63 12.7285 152.57 14.0176 155.359 16.5957C158.148 19.1595 159.543 22.8405 159.543 27.6387ZM153.171 27.6387C153.171 24.3874 152.328 21.9095 150.64 20.2051C148.951 18.4863 146.542 17.627 143.409 17.627H138.925V38.1016H144.289C146.105 38.1016 147.672 37.679 148.987 36.834C150.317 35.9746 151.348 34.7643 152.077 33.2031C152.806 31.6419 153.171 29.7871 153.171 27.6387ZM189 38.1016V43H164.349V12.7285H188.12V17.627H170.678V25.2324H186.811V30.1309H170.678V38.1016H189Z" fill="black"/>
</mask>
<g mask="url(#mask0_8_20)">
<path d="M164.768 12H189.733V43H131.814L164.768 12Z" fill="#FF8F1F"/>
</g>
<path fill-rule="evenodd" clip-rule="evenodd" d="M38.4552 12.4963C36.3659 10.8963 34.0082 9.6381 31.4654 8.80835C29.1861 8.06362 26.755 7.66064 24.2323 7.66064C21.7095 7.66064 19.2801 8.06192 16.9991 8.80835C14.4546 9.6381 12.0986 10.8946 10.0094 12.4963C4.25524 16.9069 0.530273 23.9258 0.530273 31.8305C0.530273 36.8311 2.02092 41.478 4.57037 45.3309V45.3326C4.6554 45.4584 4.74044 45.586 4.82881 45.7101C5.14561 46.1726 5.47909 46.6231 5.83092 47.0618C5.90929 47.1621 5.99099 47.2608 6.07269 47.3611C6.22276 47.5464 6.37949 47.7283 6.53789 47.9086C6.6346 48.0191 6.73131 48.1279 6.83135 48.2367C6.87304 48.2843 6.91639 48.332 6.95974 48.3779C7.04311 48.4697 7.12815 48.5598 7.21652 48.6499C7.26154 48.7009 7.3099 48.7485 7.35658 48.7978C7.52332 48.973 7.69673 49.143 7.87014 49.3113C7.94184 49.3827 8.0152 49.4542 8.09023 49.5256C8.61379 50.0221 9.15737 50.4964 9.72428 50.9419C9.81599 51.015 9.90769 51.0864 9.9977 51.1562C10.1645 51.2837 10.3328 51.4112 10.5046 51.5336C10.748 51.7122 10.9965 51.8839 11.2482 52.0505C11.3266 52.1049 11.4083 52.1576 11.49 52.2103C11.5734 52.2664 11.6618 52.3226 11.7485 52.3787C11.9236 52.4892 12.1019 52.598 12.2771 52.7034C12.6322 52.916 12.9941 53.1183 13.3609 53.3121C13.4726 53.3717 13.5827 53.4295 13.696 53.4856C13.7677 53.523 13.8428 53.5604 13.9144 53.5961C14.0528 53.6641 14.1929 53.7321 14.333 53.795C14.343 53.8018 14.3547 53.8086 14.3663 53.8137C14.5031 53.8783 14.6398 53.9396 14.7782 54.0008C14.7815 54.0025 14.7849 54.0042 14.7865 54.0059C14.8681 54.0399 14.9465 54.0756 15.0282 54.1096C15.1716 54.1725 15.3167 54.232 15.4601 54.2915C15.5002 54.3085 15.5418 54.3255 15.5818 54.3408C15.7536 54.4071 15.922 54.4734 16.0937 54.5364C16.1721 54.5653 16.2454 54.5942 16.3221 54.6214C16.4772 54.6775 16.6307 54.7302 16.7841 54.7812C16.8623 54.8067 16.9374 54.8322 17.0158 54.8577C17.1692 54.9087 17.3259 54.958 17.4793 55.0056C17.5544 55.0277 17.6261 55.0499 17.7011 55.0703C17.8028 55.1009 17.9012 55.1281 18.0012 55.1553C18.183 55.2063 18.3663 55.2573 18.5532 55.3015C18.6165 55.3168 18.6782 55.3321 18.7399 55.3491C18.9066 55.3899 19.0767 55.429 19.2451 55.4647C19.3168 55.4817 19.3868 55.4953 19.4569 55.5106C19.5585 55.5327 19.6569 55.5514 19.7553 55.5718C19.882 55.5957 20.0071 55.6195 20.1338 55.6416C20.2622 55.6637 20.3889 55.6841 20.5123 55.7062C20.8424 55.7606 21.1743 55.8065 21.5044 55.8439C21.5778 55.8541 21.6478 55.8626 21.7195 55.8677C21.9129 55.8881 22.1064 55.9068 22.2981 55.9221C22.3832 55.9306 22.4715 55.9357 22.5565 55.9408C22.7066 55.9527 22.8567 55.9612 23.0084 55.9697C23.0768 55.9748 23.1468 55.9765 23.2135 55.9782C23.3803 55.9867 23.5503 55.9918 23.7187 55.9935C23.7854 55.9952 23.8538 55.9969 23.9205 55.9969C24.0222 56.0003 24.1239 56.0003 24.2256 56.0003C24.3273 56.0003 24.429 56.0003 24.5291 55.9969C24.5958 55.9969 24.6658 55.9952 24.7342 55.9935C24.9025 55.9901 25.071 55.985 25.2377 55.9782C25.3061 55.9765 25.3761 55.9731 25.4445 55.9697C25.5961 55.9612 25.7445 55.9527 25.8946 55.9408C25.9814 55.9357 26.0681 55.9306 26.1548 55.9221C26.3465 55.9068 26.5416 55.8881 26.7333 55.8677C26.8034 55.8609 26.875 55.8524 26.9467 55.8439C27.2786 55.8065 27.6087 55.7606 27.9389 55.7062C28.0656 55.6858 28.1923 55.6654 28.3174 55.6416C28.4441 55.6195 28.5709 55.5957 28.6942 55.5718C28.7926 55.5531 28.8909 55.5344 28.9944 55.5106C29.0627 55.497 29.1344 55.4817 29.2045 55.4647C29.3728 55.429 29.5446 55.3899 29.713 55.3491C29.7747 55.3338 29.8347 55.3185 29.8981 55.3015C30.0831 55.2573 30.2666 55.208 30.4483 55.1553C30.5484 55.1281 30.6517 55.1009 30.7484 55.0703C30.8251 55.0499 30.8969 55.0277 30.9702 55.0056C31.1253 54.958 31.282 54.9104 31.4387 54.8577C31.5154 54.8322 31.5921 54.8067 31.6672 54.7812C31.8239 54.7302 31.9757 54.6775 32.1308 54.6214C32.2074 54.5942 32.2824 54.5653 32.3608 54.5364C32.5292 54.4734 32.701 54.4071 32.8693 54.3408C32.9344 54.3136 33.0044 54.2864 33.0694 54.2592C33.1995 54.2065 33.3263 54.1521 33.458 54.096C33.538 54.0603 33.6197 54.0246 33.698 53.9906C33.7314 53.977 33.7631 53.9617 33.7914 53.9481C33.9398 53.8817 34.0832 53.8154 34.2266 53.7474C34.2333 53.7457 34.2366 53.7423 34.245 53.7389C34.3967 53.6658 34.5485 53.5893 34.7035 53.5145C34.7101 53.5111 34.7185 53.5077 34.7235 53.506C34.8052 53.4635 34.8853 53.4227 34.9653 53.3802C35.0987 53.3121 35.2337 53.2407 35.3638 53.1676C35.3888 53.1557 35.4121 53.1438 35.4355 53.1302C35.5705 53.0537 35.7072 52.9789 35.8406 52.9024C35.9424 52.8429 36.0457 52.7833 36.1458 52.7238C36.3226 52.6184 36.4993 52.5113 36.6727 52.4008C36.7961 52.3209 36.9228 52.2409 37.0445 52.1593C37.1729 52.076 37.2996 51.991 37.423 51.906C37.5181 51.8397 37.6164 51.7751 37.7081 51.7071C37.7698 51.6663 37.8265 51.6237 37.8866 51.5812C37.9816 51.5132 38.0733 51.4452 38.165 51.3738C38.275 51.2939 38.3801 51.2123 38.4885 51.1307C38.9603 50.7685 39.4172 50.3876 39.8608 49.9897C39.9658 49.8979 40.0658 49.8061 40.1658 49.7109C40.3192 49.5681 40.4693 49.4252 40.6211 49.2773C40.7695 49.1328 40.9196 48.9832 41.0646 48.8335C41.1696 48.7247 41.273 48.6142 41.378 48.5037C41.4348 48.4442 41.4881 48.3847 41.5448 48.3251C41.6215 48.2401 41.6966 48.1551 41.7749 48.0701C41.8716 47.963 41.965 47.8542 42.0567 47.7453C42.1584 47.6314 42.2518 47.5175 42.3502 47.4002C42.4368 47.2948 42.5252 47.1893 42.6069 47.0822C42.702 46.9632 42.7987 46.8425 42.8921 46.7218C42.9288 46.6742 42.9638 46.6282 42.9972 46.5806C43.0971 46.4531 43.1922 46.3239 43.2856 46.1913C43.3873 46.0552 43.4823 45.9175 43.579 45.7798C43.6807 45.6336 43.7842 45.4822 43.8841 45.3326V45.3309C46.4352 41.478 47.9242 36.8311 47.9242 31.8305C47.9326 23.9258 44.2093 16.9052 38.4552 12.4963ZM16.704 49.5817C12.2854 47.6297 8.73886 44.0115 6.82635 39.5057C7.89849 38.7592 9.19071 38.3035 10.5763 38.2559C10.6614 38.2525 10.7414 38.2508 10.8264 38.2508C11.2183 38.2508 11.6 38.2831 11.9752 38.3461C13.4776 38.596 14.8232 39.3237 15.852 40.3745C17.1392 41.6855 17.9345 43.498 17.9345 45.5026C17.9345 47.0142 17.481 48.4187 16.704 49.5817ZM31.7572 49.5817C30.9802 48.4204 30.5267 47.0142 30.5267 45.5026C30.5267 43.498 31.322 41.6855 32.6076 40.3745C33.6313 39.3305 34.9603 38.6062 36.4476 38.3512C36.8344 38.2848 37.2296 38.2508 37.6348 38.2508C37.7015 38.2508 37.7715 38.2525 37.8382 38.2542C39.2438 38.2933 40.5494 38.7507 41.6349 39.5057C39.724 44.0115 36.1775 47.628 31.7572 49.5817ZM39.8691 29.6898C38.5969 29.2375 37.3047 28.8396 35.989 28.4979C35.4689 28.3619 34.9453 28.236 34.4217 28.117L32.8543 27.7974C31.5522 27.5508 30.2332 27.3621 28.8993 27.2278C28.4391 27.1818 27.9756 27.1427 27.5104 27.1104C27.4187 27.1036 27.3269 27.0968 27.2352 27.0917C27.0368 27.0798 26.8401 27.0679 26.64 27.0577C25.843 27.0169 25.0409 26.9965 24.2323 26.9965C23.2668 26.9965 22.3098 27.0271 21.3593 27.0849H21.3577C19.4069 27.2023 17.4894 27.4403 15.6085 27.794L14.0411 28.1204C13.5126 28.236 12.9924 28.3619 12.4738 28.4979C11.1416 28.8447 9.82933 29.2494 8.54544 29.7085C7.43829 30.103 6.35115 30.54 5.28734 31.0143C5.49243 25.9576 7.60335 21.4042 10.9081 18.0784C12.2854 16.6893 13.8744 15.5144 15.6135 14.6081C16.1237 14.3411 16.6423 14.0997 17.1775 13.8821C17.6911 13.6695 18.2113 13.4825 18.7466 13.3227C19.6153 13.054 20.509 12.8466 21.4244 12.7106C22.3414 12.5711 23.2785 12.4997 24.234 12.4997C26.1414 12.4997 27.9839 12.7854 29.7213 13.3193C30.2516 13.4842 30.7752 13.6712 31.287 13.8821H31.2886C31.8239 14.0997 32.3442 14.3428 32.8543 14.6098C34.5951 15.5161 36.1792 16.6893 37.5581 18.0801H37.5597C39.2088 19.7447 40.5644 21.7137 41.5314 23.9003C42.4969 26.0869 43.0754 28.4877 43.1788 31.016C42.0917 30.5314 40.9913 30.0894 39.8691 29.6898Z" fill="#FF8F1F"/>
<path d="M31.4657 8.80835C34.0084 9.6381 36.3661 10.8963 38.4554 12.4963C39.3026 13.1455 40.1059 13.8512 40.8596 14.6081L40.8594 22.529C39.9718 20.886 38.8566 19.389 37.56 18.0801H37.5583C36.1794 16.6893 34.5954 15.5161 32.8547 14.6098C32.3444 14.3428 31.8242 14.0997 31.289 13.8821H31.2873C30.7754 13.6712 30.2518 13.4842 29.7216 13.3193C27.9842 12.7854 26.1417 12.4997 24.2342 12.4997C23.2788 12.4997 22.3418 12.5711 21.4246 12.7106C20.5092 12.8466 19.6155 13.054 18.7468 13.3227C18.2116 13.4825 17.6914 13.6695 17.1778 13.8821C16.6426 14.0997 16.124 14.3411 15.6138 14.6081C13.8747 15.5144 12.2857 16.6893 10.9084 18.0784C9.60841 19.3867 8.49314 20.8849 7.60596 22.529V14.6081C8.35963 13.8513 9.16267 13.1456 10.0097 12.4963C12.099 10.8946 14.455 9.6381 16.9994 8.80835C19.2804 8.06192 21.7097 7.66064 24.2325 7.66064C26.7553 7.66064 29.1863 8.06362 31.4657 8.80835Z" fill="white"/>
<path d="M39.0453 13.8371L47.9325 9.30577L24.2322 0L0.531898 9.30748V18.7272C0.215094 18.9159 0 19.2662 0 19.6657C0 20.067 0.215094 20.4173 0.531898 20.6043V21.8353H1.59569V20.6043C1.9125 20.4156 2.1276 20.067 2.1276 19.6657C2.1276 19.2645 1.9125 18.9159 1.59569 18.7272V9.84987L9.42077 13.8388V19.7988C12.0322 17.4314 15.022 15.6937 16.1904 15.1208C19.1109 13.864 21.4861 13.3224 24.2322 13.3224C26.9784 13.3224 30.0131 13.9948 32.2757 15.1225C33.7379 15.8245 37.1389 17.7946 39.0453 20.0586V13.8371Z" fill="#3D72FC"/>
<path fill-rule="evenodd" clip-rule="evenodd" d="M12.5629 20.7585C10.4154 23.0233 8.88987 25.9069 8.27246 29.1221C8.28744 29.116 8.30243 29.1114 8.31742 29.1053C9.00676 25.9711 10.6792 23.2143 12.9855 21.188L12.5629 20.7585Z" fill="#3D72FC"/>
<path fill-rule="evenodd" clip-rule="evenodd" d="M13.4048 20.8319C14.8345 19.6689 16.4844 18.7765 18.2812 18.2325L17.8017 17.0527C15.9899 17.8565 14.3474 18.9843 12.9463 20.3658L13.4048 20.8319Z" fill="#3D72FC"/>
<path fill-rule="evenodd" clip-rule="evenodd" d="M18.8087 18.0838C19.9566 17.7843 21.16 17.6253 22.3992 17.6253C22.9523 17.6253 23.4977 17.6574 24.0357 17.7186V15.6815C22.0157 15.7151 20.0825 16.1232 18.3037 16.8414L18.8087 18.0838Z" fill="#3D72FC"/>
<path fill-rule="evenodd" clip-rule="evenodd" d="M24.5796 15.6802V17.7906C26.2549 18.0503 27.836 18.602 29.2716 19.3966L30.3101 16.84C28.5313 16.1218 26.5996 15.7138 24.5796 15.6802Z" fill="#3D72FC"/>
<path fill-rule="evenodd" clip-rule="evenodd" d="M30.8125 17.0507L29.7485 19.6714C31.1032 20.4905 32.3156 21.5297 33.3392 22.74L35.6694 20.3637C34.2668 18.9822 32.6258 17.8545 30.8125 17.0507Z" fill="#3D72FC"/>
<path fill-rule="evenodd" clip-rule="evenodd" d="M36.0528 20.7585L33.6865 23.1715C34.7505 24.5316 35.5178 26.0353 36.0872 27.6673C36.0977 27.6994 36.1082 27.7331 36.1187 27.7651C37.5574 28.1518 38.9645 28.6056 40.3418 29.1237C39.7408 25.9864 38.2317 23.0554 36.0528 20.7585Z" fill="#3D72FC"/>
<path fill-rule="evenodd" clip-rule="evenodd" d="M23.9663 25.8516L27.39 20.1599L26.1963 26.8799C25.9449 26.5196 25.6082 26.2265 25.2028 26.0391C24.7973 25.853 24.3729 25.7962 23.9663 25.8516Z" fill="#3D72FC"/>
<path fill-rule="evenodd" clip-rule="evenodd" d="M25.9643 25.954C28.0186 26.8212 28.9941 29.2237 28.1437 31.3185C27.2933 33.4133 24.9373 34.408 22.8831 33.5408C20.8288 32.6736 19.8533 30.2711 20.7037 28.1763C21.5541 26.0816 23.9101 25.0869 25.9643 25.954Z" fill="white"/>
<path fill-rule="evenodd" clip-rule="evenodd" d="M24.4241 27.4044C25.6913 27.4044 26.7201 28.4535 26.7201 29.7474C26.7201 31.0397 25.6913 32.0888 24.4241 32.0888C23.1552 32.0888 22.1282 31.0397 22.1265 29.7474C22.1265 28.4535 23.1552 27.4061 24.4241 27.4044Z" fill="#3D72FC"/>
</svg>
